<svg xmlns="http://www.w3.org/2000/svg" id="Layer_160e48c488b1cd" width="40" height="40" aria-hidden="true" data-name="Layer 1" style="width:40px;height:40px;display:block;transform:scale(1,1);transition-property:none" viewBox="0 0 75.43 75.43"><defs><clipPath id="clip-path60e48c488b1cd" transform="translate(-27.28 -26.28)"><circle cx="65" cy="64" r="36.22" class="cls-1-60e48c488b1cd" style="transition-property:none"/></clipPath><clipPath id="clip-path-260e48c488b1cd" transform="translate(-27.28 -26.28)"><path d="M-1242.03-5959.77h3160.59V4327.5h-3160.59z" class="cls-1-60e48c488b1cd" style="transition-property:none"/></clipPath><clipPath id="clip-path-360e48c488b1cd" transform="translate(-27.28 -26.28)"><path d="M-4.14-7.33h138.28v140.47H-4.14z" class="cls-1-60e48c488b1cd" style="transition-property:none"/></clipPath><clipPath id="clip-path-560e48c488b1cd" transform="translate(-27.28 -26.28)"><path d="M28.78 27.78h72.43v72.43H28.78z" class="cls-1-60e48c488b1cd" style="transition-property:none"/></clipPath><clipPath id="clip-path-760e48c488b1cd" transform="translate(-27.28 -26.28)"><path d="M66.06 72.9a9.34 9.34 0 1 0 0-18.67 10.93 10.93 0 0 0-2.61.41A5.39 5.39 0 0 1 64 56.9a4.67 4.67 0 0 1-4.68 4.68 5.39 5.39 0 0 1-2.26-.6 11.3 11.3 0 0 0-.36 2.58 9.34 9.34 0 0 0 9.36 9.34Zm0 2.73a22.74 22.74 0 0 1-19.89-12 22.45 22.45 0 0 1 39.78 0 22.74 22.74 0 0 1-19.95 12Zm0 4a26.82 26.82 0 0 0 23.75-14.82 3.25 3.25 0 0 0 .29-1.22 3.21 3.21 0 0 0-.29-1.22 26.49 26.49 0 0 0-47.57 0 3.21 3.21 0 0 0-.24 1.22 3.25 3.25 0 0 0 .29 1.22A26.83 26.83 0 0 0 66 79.64Z" class="cls-1-60e48c488b1cd" style="transition-property:none"/></clipPath><linearGradient id="CerosGradient_idb4c76cec9" x1="50%" x2="50%" y1="100%" y2="0%" class="cerosgradient" data-cerosgradient="true" gradientUnits="userSpaceOnUse"><stop offset="0%" stop-color="#d1d1d1" style="transition-property:none"/><stop offset="100%" stop-color="#d1d1d1" style="transition-property:none"/></linearGradient><style>.cls-1-60e48c488b1cd{fill:none}.cls-2-60e48c488b1cd{clip-path:url(#clip-path60e48c488b1cd)}.cls-3-60e48c488b1cd{clip-path:url(#clip-path-260e48c488b1cd)}.cls-6-60e48c488b1cd{clip-path:url(#clip-path-560e48c488b1cd)}</style></defs><g class="cls-2-60e48c488b1cd"><g class="cls-3-60e48c488b1cd" style="isolation:isolate"><g style="clip-path:url(#clip-path-360e48c488b1cd)"><g class="cls-2-60e48c488b1cd"><circle cx="37.72" cy="37.72" r="36.22" class="cls-6-60e48c488b1cd" style="transition-property:none;fill:#fff"/></g><circle cx="37.72" cy="37.72" r="36.22" class="cls-6-60e48c488b1cd" style="transition-property:none;stroke:#000;stroke-miterlimit:10;stroke-width:3px;fill:none"/></g></g></g><g style="clip-path:url(#clip-path-760e48c488b1cd)"><path d="M12.47 19.06h52.54v36.49H12.47z" class="cls-3-60e48c488b1cd" style="transition-property:none"/></g></svg>