<svg xmlns="http://www.w3.org/2000/svg" width="30" height="30" aria-hidden="true" style="width:30px;height:30px;display:block;transform:scale(1,1);transition-property:none" viewBox="0 0 56 56"><path d="M55.6 20.2 48 14.57V5c0-.55-.45-1-1-1h-6c-.55 0-1 .45-1 1v3.64L28.6.2c-.36-.26-.84-.26-1.19 0L.4 20.2c-.44.33-.54.96-.21 1.4.2.26.5.4.8.4.21 0 .41-.06.59-.2l2.41-1.79s-.01.07-.01.11c0 .83.32 1.62.91 2.21l7.71 7.71c.77.77 1.06 1.9.76 2.95l-3.35 11.74c-.09.3-.03.63.16.88s.49.4.8.4h3v8c0 1.1.9 2 2 2h5c.55 0 1-.45 1-1s-.45-1-1-1h-5v-8h4c.55 0 1-.45 1-1s-.45-1-1-1H12.3l2.99-10.46c.5-1.75.01-3.63-1.27-4.91l-7.71-7.71c-.44-.44-.44-1.15 0-1.59a1.11 1.11 0 0 1 1.58 0l10.38 10.38c.39.39 1.02.39 1.41 0l3.53-3.53 2.16.86c1.68.67 3.52.67 5.2 0l2.16-.86 3.53 3.53c.39.39 1.02.39 1.41 0l10.38-10.38c.44-.44 1.15-.44 1.59 0s.44 1.15 0 1.58l-6.21 6.21c-.94.94-1.46 2.2-1.46 3.54v23.34h-4v-11c0-.55-.45-1-1-1s-1 .45-1 1v11h-1c-.55 0-1 .45-1 1s.45 1 1 1h7c1.1 0 2-.9 2-2V30.67c0-.8.31-1.55.88-2.12l6.21-6.21c.59-.59.91-1.37.91-2.21 0-.04 0-.07-.01-.11l2.41 1.79c.45.33 1.07.24 1.4-.21a.996.996 0 0 0-.21-1.4Zm-8.92-2.28-9.67 9.67-3.29-3.29c-.28-.28-.71-.37-1.08-.22l-2.77 1.11c-1.2.48-2.52.48-3.71 0l-2.77-1.11c-.37-.15-.79-.06-1.08.22l-3.29 3.29-9.67-9.67c-.4-.4-.9-.65-1.43-.78L28 2.24l12.4 9.19c.3.22.71.26 1.05.09a1 1 0 0 0 .55-.89V6h4v9.07c0 .32.15.62.4.8l1.7 1.26c-.53.13-1.03.38-1.43.78Zm-9.67-3.91c-2.76 0-5 2.24-5 5s2.24 5 5 5 5-2.24 5-5-2.24-5-5-5Zm0 8c-1.65 0-3-1.35-3-3s1.35-3 3-3 3 1.35 3 3-1.35 3-3 3Zm-18-8c-2.76 0-5 2.24-5 5s2.24 5 5 5 5-2.24 5-5-2.24-5-5-5Zm0 8c-1.65 0-3-1.35-3-3s1.35-3 3-3 3 1.35 3 3-1.35 3-3 3Zm13 11c0-2.21-1.79-4-4-4s-4 1.79-4 4 1.79 4 4 4 4-1.79 4-4Zm-6 0c0-1.1.9-2 2-2s2 .9 2 2-.9 2-2 2-2-.9-2-2ZM38 34.54a2.81 2.81 0 0 0-1.15-2.03c-1.08-.78-2.64-.62-3.63.36a.996.996 0 1 0 1.41 1.41c.3-.3.76-.37 1.05-.16.26.19.32.44.33.57.02.23-.06.45-.22.61l-5.48 5.49a.99.99 0 0 0-.29.71v12.51h-4V41.5c0-.26-.11-.52-.29-.71l-5.48-5.49a.762.762 0 0 1-.22-.61c.01-.13.07-.38.33-.57.29-.21.75-.14 1.05.16a.996.996 0 1 0 1.41-1.41c-.99-.99-2.55-1.15-3.63-.36-.67.48-1.09 1.22-1.15 2.03-.07.81.23 1.61.8 2.18l5.19 5.19V54.5c0 .83.67 1.5 1.5 1.5h5c.83 0 1.5-.67 1.5-1.5V41.91l5.19-5.19c.57-.58.87-1.37.8-2.18Z" style="transition-property:none;fill:#1a1a1a"/></svg>