<svg xmlns="http://www.w3.org/2000/svg" xml:space="preserve" width="24" height="20" aria-hidden="true" style="overflow:visible;fill:url(#a);width:24px;height:20px;display:block;transform:scale(1,1);transition-property:none" viewBox="0 0 47.6 38.7"><defs><linearGradient id="a" x1="50%" x2="50%" y1="100%" y2="0%" class="cerosgradient" data-cerosgradient="true" gradientUnits="userSpaceOnUse"><stop offset="0%" style="transition-property:none"/><stop offset="100%" style="transition-property:none"/></linearGradient></defs><path d="M47.6 4.6c-1.8.8-3.6 1.3-5.6 1.5C44 4.9 45.6 3 46.3.7c-1.9 1.1-4 1.9-6.2 2.4-3.7-4-9.9-4.1-13.8-.4-2 1.8-3.1 4.4-3.1 7.1 0 .8.1 1.5.2 2.2-7.8-.4-15.1-4.1-20.1-10.2-2.6 4.4-1.3 10.1 3 13-1.6 0-3.1-.5-4.4-1.2v.1c0 4.6 3.3 8.7 7.8 9.6-1.4.4-2.9.4-4.4.2 1.3 4 4.9 6.7 9.1 6.8C11 33 6.7 34.4 2.3 34.4c-.8 0-1.6 0-2.3-.1 4.5 2.9 9.7 4.4 15 4.4 18 0 27.8-14.9 27.8-27.8V9.6c1.9-1.4 3.5-3.1 4.8-5z" style="fill:url(#a);transition-property:none"/></svg>