<svg xmlns="http://www.w3.org/2000/svg" width="28" height="28" aria-hidden="true" style="fill:url(#a);width:28px;height:28px;display:block;transform:scale(1,1);transition-property:none" viewBox="0 0 52 52"><defs><linearGradient id="a" x1="50%" x2="50%" y1="100%" y2="0%" class="cerosgradient" data-cerosgradient="true" gradientUnits="userSpaceOnUse"><stop offset="0%" style="transition-property:none"/><stop offset="100%" style="transition-property:none"/></linearGradient></defs><path d="m23.29 27.29-16 16a.996.996 0 0 0 .71 1.7c.26 0 .51-.1.71-.29l16-16a.996.996 0 1 0-1.41-1.41ZM4.73 18.05a9.63 9.63 0 0 0 6.17 1.2c1.16-.16 2.35.25 3.2 1.09l2.5 2.48c.2.19.45.29.71.29s.51-.1.71-.29a.996.996 0 0 0 0-1.41l-2.5-2.48a5.828 5.828 0 0 0-4.88-1.65 7.69 7.69 0 0 1-4.9-.95 7.602 7.602 0 0 1-3.68-5.15l.1-.17 4.76 2.74c1.13.65 2.53.49 3.49-.4 1.35-1.25 2.4-3.07 2.79-4.86.28-1.24-.29-2.51-1.41-3.15L7.04 2.61l.09-.16c2.12-.72 4.41-.51 6.33.6a7.623 7.623 0 0 1 3.77 7.74c-.25 1.72.39 3.52 1.7 4.83l4.43 4.41a.996.996 0 1 0 1.41-1.41l-4.43-4.41c-.87-.86-1.29-2.03-1.13-3.12a9.604 9.604 0 0 0-4.75-9.76C11.9-.18 8.85-.4 6.07.67c-.21.08-.39.23-.5.43l-.78 1.34a.998.998 0 0 0 .37 1.37l5.62 3.23c.35.2.54.61.46.98-.31 1.41-1.14 2.84-2.2 3.83-.31.29-.77.35-1.13.14L2.29 8.76a.996.996 0 0 0-1.36.37l-.78 1.34c-.11.2-.16.43-.12.65a9.624 9.624 0 0 0 4.72 6.92Zm42.54 15.91a9.63 9.63 0 0 0-6.17-1.2c-1.16.16-2.35-.25-3.2-1.09l-4.47-4.45a.996.996 0 1 0-1.41 1.41l4.47 4.45a5.828 5.828 0 0 0 4.88 1.65c1.71-.23 3.4.09 4.9.95a7.602 7.602 0 0 1 3.68 5.15l-.1.17-4.76-2.74a2.947 2.947 0 0 0-3.49.4c-1.35 1.25-2.4 3.07-2.79 4.86-.28 1.24.29 2.51 1.41 3.15l4.75 2.73-.09.16c-2.12.72-4.41.51-6.33-.6a7.623 7.623 0 0 1-3.77-7.74c.25-1.72-.39-3.52-1.7-4.83l-2.46-2.45a.996.996 0 0 0-1.41 0c-.39.39-.39 1.03 0 1.42l2.46 2.45c.87.86 1.29 2.03 1.13 3.12a9.604 9.604 0 0 0 4.75 9.76c1.48.85 3.13 1.28 4.8 1.28 1.2 0 2.41-.22 3.57-.67.21-.08.39-.23.5-.43l.78-1.34a.998.998 0 0 0-.37-1.37l-5.62-3.23c-.35-.2-.54-.61-.46-.98.31-1.41 1.14-2.84 2.2-3.83.31-.29.77-.35 1.13-.14l5.62 3.23c.48.27 1.09.11 1.36-.37l.78-1.34c.11-.2.16-.43.12-.65-.45-2.93-2.17-5.46-4.72-6.92Zm-17.44-7.37L41.42 15h2.59c.34 0 .66-.18.85-.47l5-8c.25-.4.19-.91-.14-1.24l-3-3a.998.998 0 0 0-1.24-.14l-8 5c-.29.18-.47.5-.47.85v2.59L25.42 22.18c-.46-.11-.93-.17-1.41-.17-1.6 0-3.11.62-4.24 1.76l-16 16c-1.13 1.13-1.76 2.64-1.76 4.24s.62 3.11 1.76 4.24c1.13 1.13 2.64 1.76 4.24 1.76s3.11-.62 4.24-1.76l16-16a5.97 5.97 0 0 0 1.59-5.65Zm-3 4.24-16 16c-1.51 1.51-4.15 1.51-5.66 0C4.41 46.07 4 45.07 4 44s.42-2.07 1.17-2.83l16-16C21.93 24.41 22.93 24 24 24s2.07.42 2.83 1.17c.76.76 1.17 1.76 1.17 2.83s-.42 2.07-1.17 2.83Zm1.41-7.07a5.94 5.94 0 0 0-.87-.72L38.7 11.71a.99.99 0 0 0 .29-.71V8.55l6.86-4.29 1.87 1.87-4.28 6.86h-2.45c-.27 0-.52.11-.71.29L28.95 24.61c-.21-.31-.45-.6-.72-.87Z" style="fill:url(#a);transition-property:none"/></svg>