<svg xmlns="http://www.w3.org/2000/svg" xml:space="preserve" width="27" height="27" aria-hidden="true" style="overflow:visible;width:27px;height:27px;display:block;transform:scale(1,1);transition-property:none" viewBox="0 0 85 85"><style>.st0-60d9fbb1043d3{fill:#fff}</style><defs><linearGradient id="CerosGradient_id69d39a9b4" x1="50%" x2="50%" y1="100%" y2="0%" class="cerosgradient" data-cerosgradient="true" gradientUnits="userSpaceOnUse"><stop offset="0%" stop-color="#d1d1d1" style="transition-property:none"/><stop offset="100%" stop-color="#d1d1d1" style="transition-property:none"/></linearGradient></defs><g id="Linkedin_1_60d9fbb1043d3"><path id="back-11_1_60d9fbb1043d3" d="M5.9 0h73.2C82.4 0 85 2.6 85 5.9v73.2c0 3.3-2.6 5.9-5.9 5.9H5.9C2.6 85 0 82.4 0 79.1V5.9C0 2.6 2.6 0 5.9 0z" style="transition-property:none"/><g id="Linkedin-2_1_60d9fbb1043d3"><path d="M19.3 34.4h9.9v31.7h-9.9V34.4zm4.9-15.8c3.6 0 6.4 3.3 5.6 7-.5 2.2-2.2 3.9-4.4 4.4-3.7.8-7-2-7-5.6.1-3.2 2.7-5.8 5.8-5.8M35.4 34.4h9.5v4.3h.1c1.9-3.3 5.5-5.3 9.3-5.1 10 0 11.8 6.6 11.8 15.1v17.4h-9.9V50.7c0-3.7-.1-8.4-5.1-8.4s-5.9 4-5.9 8.2v15.7h-9.8V34.4z" class="st0-60d9fbb1043d3" style="transition-property:none"/></g></g></svg>