<svg xmlns="http://www.w3.org/2000/svg" width="36" height="29" aria-hidden="true" style="fill:url(#a);width:36px;height:29px;display:block;transform:scale(1,1);transition-property:none" viewBox="0 0 60 46"><defs><linearGradient id="a" x1="50%" x2="50%" y1="100%" y2="0%" class="cerosgradient" data-cerosgradient="true" gradientUnits="userSpaceOnUse"><stop offset="0%" style="transition-property:none"/><stop offset="100%" style="transition-property:none"/></linearGradient></defs><path d="m59.71 18.29-18-18a.996.996 0 0 0-1.41 0l-4.59 4.59a2.995 2.995 0 0 0-.1 4.12H24.39a2.995 2.995 0 0 0-.1-4.12L19.71.29a.996.996 0 0 0-1.41 0l-18.01 18a.996.996 0 0 0 0 1.41l4.59 4.59a3 3 0 0 0 2.12.88c.71 0 1.42-.26 1.99-.77l2.6 2.6-1.46 1.46a3.833 3.833 0 0 0 0 5.41c.59.59 1.33.94 2.1 1.06-.45 1.34-.16 2.88.9 3.94.75.75 1.73 1.12 2.71 1.12.06 0 .13-.02.19-.02-.05 1.04.31 2.1 1.1 2.9.75.75 1.73 1.12 2.71 1.12.83 0 1.64-.28 2.33-.81.17.62.48 1.21.97 1.69.75.75 1.73 1.12 2.71 1.12s1.96-.37 2.71-1.12l1.34-1.34s.07-.09.11-.13l1.48 1.48c.75.75 1.73 1.12 2.71 1.12s1.96-.37 2.71-1.12c.49-.49.8-1.07.97-1.69.69.53 1.5.81 2.33.81.98 0 1.96-.37 2.71-1.12.8-.8 1.15-1.86 1.1-2.9.06 0 .13.02.19.02.98 0 1.96-.37 2.71-1.12a3.816 3.816 0 0 0 .9-3.95 3.86 3.86 0 0 0 2.58-1.63c1.02-1.5.79-3.57-.55-4.91L48.46 27l2.6-2.6c.57.5 1.27.77 1.99.77.77 0 1.54-.29 2.12-.88l4.59-4.59a.996.996 0 0 0 0-1.41ZM6.29 22.88 2.41 19 19 2.41l3.88 3.88c.39.39.39 1.02 0 1.41L7.71 22.87a.996.996 0 0 1-1.41 0Zm5.24 7 2.34-2.34c.36-.36.83-.53 1.29-.53s.94.18 1.29.53c.71.71.71 1.87 0 2.59l-2.34 2.34c-.71.71-1.87.71-2.59 0a1.84 1.84 0 0 1 0-2.59Zm3 7.59a1.84 1.84 0 0 1 0-2.59l1-1 2.34-2.34c.36-.36.83-.53 1.29-.53s.94.18 1.29.53c.71.71.71 1.87 0 2.59l-3.34 3.34c-.71.71-1.87.71-2.59 0Zm4 4a1.84 1.84 0 0 1 0-2.59l3.34-3.34c.36-.36.83-.53 1.29-.53s.94.18 1.29.53c.71.71.71 1.87 0 2.59l-3.34 3.34c-.71.71-1.87.71-2.59 0Zm9.93.66-1.34 1.34c-.71.71-1.87.71-2.59 0a1.84 1.84 0 0 1 0-2.59l1.34-1.34c.36-.36.83-.53 1.29-.53s.94.18 1.29.53c.51.51.65 1.26.42 1.9-.09.25-.23.48-.42.68Zm20.24-9.95a1.826 1.826 0 0 1-2.82.28l-4.17-4.17a.996.996 0 1 0-1.41 1.41l4.17 4.17 1 1c.71.71.71 1.87 0 2.59-.71.71-1.87.71-2.59 0l-5.17-5.17a.996.996 0 1 0-1.41 1.41l5.17 5.17c.71.71.71 1.87 0 2.59-.71.71-1.87.71-2.59 0l-5.17-5.17a.996.996 0 1 0-1.41 1.41l3.17 3.17c.71.71.71 1.87 0 2.59-.71.71-1.87.71-2.59 0l-1.95-1.95a3.82 3.82 0 0 0-1.05-3.4c-.79-.8-1.85-1.15-2.9-1.1.05-1.04-.31-2.11-1.1-2.9-.79-.8-1.85-1.15-2.9-1.1.05-1.04-.31-2.1-1.1-2.9-.79-.8-1.85-1.15-2.9-1.1.05-1.04-.31-2.1-1.1-2.9a3.824 3.824 0 0 0-4.82-.48l-2.64-2.64 12-12h6.17l-3.12 3.12c-.94.94-1.46 2.2-1.46 3.54v6.34c0 1.65 1.35 3 3 3 2.76 0 5-2.24 5-5V20.4c1.95-1.91 5.1-1.9 7.04.04l9.35 9.35c.65.65.79 1.67.31 2.37Zm-8.25-13.14a6.96 6.96 0 0 0-4.95-2.05c-1.87 0-3.63.73-4.95 2.05l-.26.26a.99.99 0 0 0-.29.71v2c0 1.65-1.35 3-3 3-.55 0-1-.45-1-1v-6.34c0-.79.32-1.56.88-2.12l4.54-4.54h6.17l12 12L47 25.6l-6.55-6.55Zm13.26 3.84a.996.996 0 0 1-1.41 0L37.13 7.71a.996.996 0 0 1 0-1.41l3.88-3.88L57.6 19.01l-3.88 3.88Z" style="fill:url(#a);transition-property:none"/></svg>